Coordinates
version=1
nRows=12
nColumns=34
inDegrees=no

Units are S.I. units (second, meters, Newtons, ...)
If the header above contains a line with 'inDegrees', this indicates whether rotational values are in degrees (yes) or radians (no).

endheader
time	pelvis_tilt	pelvis_list	pelvis_rotation	pelvis_tx	pelvis_ty	pelvis_tz	hip_flexion_r	hip_adduction_r	hip_rotation_r	knee_angle_r	ankle_angle_r	subtalar_angle_r	mtp_angle_r	hip_flexion_l	hip_adduction_l	hip_rotation_l	knee_angle_l	ankle_angle_l	subtalar_angle_l	mtp_angle_l	lumbar_extension	lumbar_bending	lumbar_rotation	arm_flex_r	arm_add_r	arm_rot_r	elbow_flex_r	pro_sup_r	arm_flex_l	arm_add_l	arm_rot_l	elbow_flex_l	pro_sup_l
0.78	0.00436212	0.167259	-0.0145878	0.757469	0.932134	-0.19026	-0.141879	-0.221144	-0.126379	0.767724	0.064708	-0.0934899	-0.0186293	0.430592	0.0962002	-0.23497	0.520498	0.126083	0.0430386	-0.0186311	-0.168361	-0.533018	0.113378	-0.0134674	-0.220624	0.521559	0.700339	1.81289	-0.0293623	-0.310071	-0.0787104	0.487746	1.65788
0.79	0.000909374	0.166339	-0.0182169	0.767406	0.933504	-0.191531	-0.106435	-0.224069	-0.111126	0.821334	0.0325564	-0.137004	-0.0186218	0.420696	0.0968099	-0.235744	0.518188	0.139251	0.0455972	-0.0186237	-0.163935	-0.53329	0.116211	-0.013582	-0.223931	0.537671	0.699084	1.83637	-0.0223097	-0.306147	-0.0852211	0.494904	1.64813
0.8	-0.00244308	0.164423	-0.0216582	0.777113	0.93498	-0.192877	-0.0705978	-0.225544	-0.0973707	0.871953	0.00708577	-0.176895	-0.0186144	0.409787	0.0964743	-0.237359	0.513766	0.151444	0.0504871	-0.0186163	-0.159974	-0.531411	0.117886	-0.0134436	-0.227298	0.550003	0.699026	1.85933	-0.0163128	-0.302031	-0.0899403	0.503811	1.63861
0.81	-0.00557236	0.161574	-0.024707	0.786608	0.936541	-0.194279	-0.0349279	-0.2255	-0.0850728	0.918746	-0.0113963	-0.212197	-0.018607	0.397962	0.0952635	-0.239574	0.507704	0.162798	0.0575515	-0.0186089	-0.156746	-0.527625	0.11819	-0.0131658	-0.230452	0.558303	0.699856	1.88032	-0.0112606	-0.298087	-0.0923614	0.514107	1.62988
0.82	-0.00839748	0.157843	-0.0272275	0.795914	0.938196	-0.19572	0.000150466	-0.223905	-0.0741592	0.961076	-0.0231242	-0.242081	-0.0185996	0.385319	0.0932203	-0.242219	0.500408	0.173493	0.0666443	-0.0186014	-0.154427	-0.522154	0.117015	-0.0128113	-0.23319	0.562631	0.701212	1.89783	-0.00699726	-0.294626	-0.092109	0.525391	1.62247
0.83	-0.0108779	0.153298	-0.0291525	0.805052	0.939942	-0.197186	0.0343476	-0.220791	-0.0645418	0.998506	-0.0287688	-0.265992	-0.0185921	0.371956	0.0903934	-0.245194	0.492196	0.183702	0.0776065	-0.018594	-0.153084	-0.515207	0.114347	-0.0123994	-0.235381	0.563299	0.702737	1.91056	-0.0033416	-0.291889	-0.088985	0.537251	1.61684
0.84	-0.0130096	0.148034	-0.0304736	0.814045	0.941765	-0.198663	0.0674893	-0.21627	-0.0561332	1.03078	-0.029288	-0.283754	-0.0185847	0.357963	0.0868659	-0.248448	0.483281	0.193563	0.0902455	-0.0185866	-0.152691	-0.506995	0.110259	-0.0119184	-0.236964	0.560797	0.704124	1.91745	-0.000100412	-0.290036	-0.0829884	0.549295	1.61331
0.85	-0.0148154	0.142181	-0.0312242	0.822915	0.943645	-0.200145	0.0994858	-0.21054	-0.0488583	1.05779	-0.0257654	-0.295609	-0.0185773	0.343421	0.0827716	-0.251954	0.473789	0.203159	0.104321	-0.0185792	-0.153148	-0.49774	0.104887	-0.0113411	-0.23794	0.555697	0.705162	1.91792	0.00292297	-0.289141	-0.0743115	0.561167	1.61209
0.86	-0.0163317	0.135902	-0.0314624	0.831682	0.945555	-0.201626	0.1303	-0.20387	-0.0426578	1.07957	-0.0192708	-0.30219	-0.0185699	0.328395	0.0782916	-0.255682	0.463781	0.212523	0.119549	-0.0185718	-0.154321	-0.487668	0.0984131	-0.0106386	-0.238362	0.548585	0.705744	1.91183	0.00592365	-0.2892	-0.0633126	0.57256	1.61322
0.87	-0.0175956	0.129376	-0.0312575	0.840369	0.947468	-0.203108	0.15992	-0.196574	-0.0374847	1.09621	-0.0107615	-0.304425	-0.0185624	0.312943	0.0736366	-0.259591	0.453286	0.22165	0.135616	-0.0185644	-0.156063	-0.476998	0.0910451	-0.00979063	-0.238319	0.539998	0.705871	1.89958	0.0090908	-0.290136	-0.0504728	0.583224	1.61665
0.88	-0.0186351	0.122778	-0.0306814	0.848993	0.949352	-0.204593	0.188339	-0.188975	-0.0332955	1.10787	-0.00102952	-0.303399	-0.018555	0.297117	0.0690185	-0.263622	0.442338	0.230515	0.152206	-0.018557	-0.158246	-0.465933	0.0830039	-0.00879065	-0.237925	0.530395	0.705634	1.88197	0.0126018	-0.291818	-0.0363433	0.592966	1.62217
0.89	-0.0194634	0.116261	-0.0298053	0.857569	0.951178	-0.206086	0.215542	-0.181375	-0.0300401	1.11475	0.00931093	-0.300203	-0.0185476	0.280963	0.0646222	-0.267713	0.430988	0.239092	0.169038	-0.0185496	-0.160769	-0.454646	0.0745106	-0.00764479	-0.237307	0.520154	0.705176	1.86021	0.0166134	-0.294082	-0.0214906	0.601649	1.62951
